PathFileType  4	(X/Y/Z) C:\Users\antoi\Documents\MyRepositories\mobilecap\ResultsAnalysis
DataRate	CameraRate	NumFrames	NumMarkers	Units	OrigDataRate	OrigDataStartFrame	OrigNumFrames
100.0	100.0	4	51	mm	100.0	37	145
Frame#	Time	r_knee			r_shank_antsup			r_ankle			r_calc			r_5meta			r_toe			L_knee			L_shank_antsup			L_ankle			L_calc			L_5meta			L_toe			r_sh2			r_sh3			r_sh4			L_sh2			L_sh3			r_thigh1			r_thigh2			r_thigh3			r_thigh4			r_thigh5			L_thigh1			L_thigh2			L_thigh3			L_thigh4			r.ASIS			r.PSIS			L.ASIS			L.PSIS			C7			R_Shoulder			L_Shoulder			R_Sternum			L_Sternum			R_humerus			R_elbow_med			R_elbow_lat			R_forearm			R_wrist_radius			R_wrist_ulna			L_humerus			L_elbow_med			L_elbow_lat			L_forearm			L_wrist_radius			L_wrist_ulna			R_HJC			L_HJC			R_HJC_reg			L_HJC_reg			
		X1	Y1	Z1	X2	Y2	Z2	X3	Y3	Z3	X4	Y4	Z4	X5	Y5	Z5	X6	Y6	Z6	X7	Y7	Z7	X8	Y8	Z8	X9	Y9	Z9	X10	Y10	Z10	X11	Y11	Z11	X12	Y12	Z12	X13	Y13	Z13	X14	Y14	Z14	X15	Y15	Z15	X16	Y16	Z16	X17	Y17	Z17	X18	Y18	Z18	X19	Y19	Z19	X20	Y20	Z20	X21	Y21	Z21	X22	Y22	Z22	X23	Y23	Z23	X24	Y24	Z24	X25	Y25	Z25	X26	Y26	Z26	X27	Y27	Z27	X28	Y28	Z28	X29	Y29	Z29	X30	Y30	Z30	X31	Y31	Z31	X32	Y32	Z32	X33	Y33	Z33	X34	Y34	Z34	X35	Y35	Z35	X36	Y36	Z36	X37	Y37	Z37	X38	Y38	Z38	X39	Y39	Z39	X40	Y40	Z40	X41	Y41	Z41	X42	Y42	Z42	X43	Y43	Z43	X44	Y44	Z44	X45	Y45	Z45	X46	Y46	Z46	X47	Y47	Z47	X48	Y48	Z48	X49	Y49	Z49	X50	Y50	Z50	X51	Y51	Z51	

37	0.36000000	265.83417	493.09400	-54.56527	298.91037	422.23335	-78.81516	194.28703	96.58701	-106.04255	124.24291	67.06671	-142.92549	297.23224	40.50071	-76.05187	346.03604	67.21402	-133.35696	449.75487	531.05489	-338.26948	452.45722	433.49542	-342.65478	284.47558	172.57114	-299.99206	215.92217	163.11103	-241.21087	351.17646	67.59573	-342.12843	408.39036	81.34571	-301.27840	265.55050	309.55933	-61.08320	221.40167	439.44057	-41.93730	192.85189	330.65697	-50.86967	373.20471	475.63020	-334.93778	325.12983	363.16066	-333.63762	352.22880	805.74912	-5.36672	342.48807	694.45678	-21.29720	284.28181	672.82723	5.01648	239.54176	810.27298	22.24691	230.55697	695.95569	-1.83159	269.36232	730.11546	-325.04048	343.35495	611.72840	-318.87251	365.38542	784.29176	-370.34179	433.83787	665.85998	-357.68812	365.73617	977.85493	-40.80226	169.75328	1015.38596	-109.87702	358.18606	960.75418	-291.56828	157.27271	1014.68113	-210.05830	161.03712	1418.53148	-161.16506	291.08855	1389.30916	-3.02057	211.65141	1388.74873	-352.15412	305.73329	1393.84649	-165.44385	300.41590	1395.18244	-208.13062	332.67224	1258.29851	53.01571	307.22971	1039.46911	26.80006	336.28641	1060.06103	86.81953	439.66249	964.31749	91.09842	510.65302	849.24467	88.94268	490.40483	836.31390	117.06200	212.30310	1269.59030	-409.03137	171.44716	1044.89604	-320.96951	172.03809	1058.97350	-399.33885	226.03357	955.25855	-415.97196	231.84465	795.55073	-425.97683	206.16981	799.41495	-444.96139	286.58095	897.97088	-57.23503	276.28913	889.47766	-263.26434	298.79435	897.18437	-66.82071	278.27764	896.02613	-231.52175	
38	0.37000000	268.68225	493.07532	-55.01392	301.12575	421.98971	-79.22613	194.38144	97.09011	-105.97940	124.36905	67.12849	-142.96843	297.26142	40.53567	-76.01632	346.16750	67.20170	-133.27586	462.91693	531.77859	-337.12234	469.84516	434.03046	-342.06111	317.44711	163.13309	-300.69419	249.60578	149.38857	-242.05964	390.31207	62.57821	-343.35644	446.84464	79.69951	-302.33500	267.52526	309.42931	-61.43207	223.75195	439.75448	-42.37999	194.47363	331.15715	-51.21026	387.88482	471.54556	-334.29631	346.78082	356.40062	-333.47137	359.28589	804.54775	-5.90971	347.37116	693.55203	-20.82703	289.32505	672.52124	4.29017	245.95455	810.70341	21.99163	235.99937	696.39932	-2.62376	281.50953	730.53838	-327.10095	356.18349	612.08721	-320.10661	378.30403	785.38610	-369.99145	446.77182	667.09420	-356.25289	374.24202	977.06727	-40.48742	179.07559	1015.16009	-111.12363	368.69517	960.76896	-291.41882	167.25925	1014.68434	-211.32929	170.65075	1418.34224	-161.26852	300.44207	1389.17300	-3.03736	220.95176	1388.57766	-351.98535	315.23503	1393.51333	-165.42117	309.91852	1394.94816	-208.10960	343.53039	1258.68554	52.77623	322.08266	1039.51600	26.01566	350.49526	1060.56058	85.62108	456.69318	967.41779	88.98120	531.09179	854.52878	85.14707	511.16049	840.69666	113.19280	219.03351	1269.52204	-408.60849	176.48421	1045.75214	-319.04844	175.24743	1059.88108	-397.27972	225.78907	954.82654	-415.55623	226.11837	794.75467	-426.25164	199.67697	799.87932	-444.58146	295.16036	897.36771	-57.83862	286.51135	889.50612	-263.97439	307.49768	896.73988	-67.13636	288.05815	895.95736	-232.00237	
39	0.38000000	271.68016	493.00730	-55.45930	303.40319	421.71893	-79.61430	194.52288	97.47988	-106.01010	124.47161	67.21328	-143.00407	297.30348	40.57116	-75.96450	346.30616	67.15323	-133.19999	475.15262	531.88182	-335.85333	486.53444	434.34733	-341.35808	350.98445	154.06662	-301.42365	284.14890	136.18087	-242.88196	429.75882	58.19929	-344.52225	485.43779	78.67595	-303.39035	269.46373	309.31816	-61.77203	226.19959	440.03057	-42.79472	196.16479	331.63027	-51.53058	402.09254	466.90576	-333.52323	368.42584	349.38915	-333.35572	366.41664	803.28396	-6.45344	352.38503	692.51955	-20.50360	294.66303	672.17033	3.67200	252.78879	810.95977	21.67237	241.69171	696.72063	-3.35278	293.15610	730.80477	-328.70081	368.28282	612.11157	-320.98008	390.81254	785.92587	-369.55901	459.08353	667.64149	-354.75667	383.11888	976.15331	-40.34612	188.50628	1014.82212	-112.40343	379.19181	960.54219	-291.38180	177.30813	1014.50629	-212.62368	180.31012	1417.95605	-161.43526	309.84661	1388.78809	-3.12412	230.34795	1388.24313	-351.87815	324.77705	1392.93419	-165.45948	319.43537	1394.50574	-208.15867	354.29528	1258.82122	52.49204	336.76374	1039.46268	25.07620	364.60649	1060.84215	84.40757	473.52351	970.38793	86.73597	551.25691	859.75653	81.20915	531.56974	845.07010	109.25908	225.93753	1269.36412	-408.25095	181.49911	1046.49653	-317.37680	178.53381	1060.74282	-395.43014	225.61532	954.52163	-415.16940	221.25166	794.40976	-426.57699	193.73868	800.56486	-444.07185	303.97570	896.66046	-58.50503	296.75956	889.31050	-264.72055	316.40072	896.19790	-67.52781	297.96588	895.67777	-232.52338	
40	0.39000000	274.81796	492.88321	-55.88671	305.75087	421.40629	-79.96580	194.70458	97.76352	-106.11911	124.54183	67.33882	-143.05002	297.35450	40.60153	-75.89739	346.43875	67.05193	-133.14705	486.47003	531.33253	-334.46745	502.46805	434.52463	-340.52509	384.99509	145.61948	-302.18624	319.44017	123.76041	-243.69895	469.44180	54.69571	-345.59662	524.01656	78.48913	-304.43006	271.28824	309.23366	-62.09383	228.73266	440.27014	-43.17789	197.91431	332.07988	-51.82921	415.87841	461.78687	-332.61648	390.00344	342.30265	-333.29096	373.60249	801.95101	-6.96996	357.62719	691.35991	-20.51167	300.26810	671.77654	3.15021	260.05115	811.03198	21.27435	247.64359	696.90665	-4.00986	304.26260	730.85975	-329.83002	379.55363	611.76783	-321.44243	402.84608	785.86037	-369.06466	470.69332	667.45646	-353.22005	392.36646	975.12732	-40.39233	198.05853	1014.37356	-113.71329	389.67002	960.06400	-291.45941	187.43108	1014.14680	-213.94355	190.02988	1417.37533	-161.66198	319.31213	1388.16560	-3.28204	239.85357	1387.75589	-351.84637	334.39118	1392.14070	-165.56408	328.99742	1393.86401	-208.28195	364.97284	1258.70305	52.15614	351.27127	1039.30521	23.97389	378.65643	1060.88285	83.18684	490.14866	973.20741	84.34671	571.11305	864.91198	77.14013	551.65082	849.40771	105.23341	233.07476	1269.12440	-407.98709	186.45526	1047.15184	-315.94291	181.88569	1061.57044	-393.81500	225.56743	954.33589	-414.82232	217.18200	794.45434	-426.91059	188.42876	801.44643	-443.44400	313.03476	895.85915	-59.22936	307.03176	888.88357	-265.50071	325.50769	895.56270	-68.00708	308.00425	895.18874	-233.08822	
